<svg xmlns="http://www.w3.org/2000/svg" viewBox="0 0 30.68 24.3"><defs><style>.cls-1{fill:#8f44f6;}.cls-2{fill:#fff;}</style></defs><title>Asset 1</title><g id="Layer_2" data-name="Layer 2"><g id="Layer_1-2" data-name="Layer 1"><path class="cls-1" d="M26.38,14.65a3.88,3.88,0,0,0,3.81,4.8.5.5,0,0,0,0-1,3,3,0,0,1-2.29-1.07,3,3,0,0,1-.56-2.47A.5.5,0,0,0,27,14.3a.5.5,0,0,0-.61.35Z"/><path class="cls-1" d="M22.1,22.62a.5.5,0,0,0,0-1,.5.5,0,0,0,0,1Z"/><path class="cls-1" d="M8.71.5l0,2.42a.5.5,0,0,0,.85.35L11.15,1.4a.5.5,0,1,0-.7-.71L8.81,2.56l.86.36L9.71.5a.51.51,0,0,0-.5-.5.5.5,0,0,0-.5.5Z"/><path class="cls-1" d="M11.74,21.72a1.26,1.26,0,0,0,.54-1.61,1.32,1.32,0,0,0-1.51-.7,2,2,0,0,0-1.45.94,2.52,2.52,0,0,0,.08,1.83,4.31,4.31,0,0,0,.93,1.59,1.78,1.78,0,0,0,1.74.47,2.79,2.79,0,0,0,2.08-2.32,5.35,5.35,0,0,0-.28-2.17,4,4,0,0,0-1-1.76c-.46-.45-1.17.25-.71.7a4,4,0,0,1,.91,2.15,2,2,0,0,1-.49,2,1.67,1.67,0,0,1-.81.45.83.83,0,0,1-.91-.37,3.71,3.71,0,0,1-.55-1,1.84,1.84,0,0,1-.15-1.06c.1-.26.68-.46.93-.44a.25.25,0,0,1,.11.48.5.5,0,0,0,.5.87Z"/><path class="cls-2" d="M14.46,4.92a3.62,3.62,0,0,0-3.28,3.6,5.26,5.26,0,0,0,2.58,4.64c3.48,1.87,7.18-2.85,5.39-6-.95-1.7-3.07-2-4.83-2.22-.64-.07-.63.93,0,1a6,6,0,0,1,3.53,1.16A3.16,3.16,0,0,1,18,10.9a3,3,0,0,1-3.16,1.63,3.92,3.92,0,0,1-2.62-3.11c-.31-1.5.47-3.41,2.2-3.5.64,0,.65-1,0-1Z"/><path class="cls-2" d="M17.09,13a1.22,1.22,0,0,1,.43.2,1.92,1.92,0,0,1,.36.4c.25.37.45.77.67,1.15a8.56,8.56,0,0,0,2,2.38.49.49,0,0,0,.7-.7,8.25,8.25,0,0,1-2-2.41c-.45-.82-.94-1.75-1.93-2-.62-.15-.89.82-.26,1Z"/><path class="cls-1" d="M26.22,5.25a1.23,1.23,0,0,1,1.66.66,2.16,2.16,0,0,1-.78,2.3,1.89,1.89,0,0,1-1.23.51c-.47,0-.84-.38-1.33-.21s-.74.67-1,1.1A9.83,9.83,0,0,0,23,10.69a.5.5,0,0,0,.35.61A.52.52,0,0,0,24,11a6.46,6.46,0,0,1,.42-.83,4.94,4.94,0,0,1,.32-.55c.11-.14.12-.12.28-.06a2.56,2.56,0,0,0,2.56-.4c1.32-1,2.07-3.19.61-4.42a2.12,2.12,0,0,0-2.47-.3c-.54.34,0,1.2.51.86Z"/><path class="cls-1" d="M23,12.82a.5.5,0,0,0,0-1,.5.5,0,0,0,0,1Z"/><path class="cls-1" d="M5.84,11.67a12.58,12.58,0,0,1-.54,1.49c-.11.23-.21.45-.33.68l-.2.37a.86.86,0,0,1-.1.16s0,0,0,0h.27c-.2,0-.44-.43-.58-.61a9.75,9.75,0,0,1-.59-.84,2.51,2.51,0,0,0-.55-.74.72.72,0,0,0-1,0,3,3,0,0,0-.49.86c-.18.33-.35.67-.52,1a4.24,4.24,0,0,1-1,1.48.52.52,0,0,0-.18.69.5.5,0,0,0,.68.18A4.42,4.42,0,0,0,2,14.82c.17-.32.34-.64.5-1l.29-.55A1.42,1.42,0,0,1,3,12.88L2.78,13l-.16,0,0,.06a1,1,0,0,0,.1.17c.08.14.17.27.25.4s.37.53.56.78c.36.46.82,1.15,1.5.91a1.19,1.19,0,0,0,.58-.61c.15-.28.3-.57.43-.86a15.68,15.68,0,0,0,.72-1.87c.19-.62-.78-.88-1-.27Z"/></g></g></svg>