<svg xmlns="http://www.w3.org/2000/svg" viewBox="0 0 88.79 21.97"><defs><style>.cls-1{fill:#fff;}.cls-2{fill:#8f44f6;}</style></defs><g id="Layer_2" data-name="Layer 2"><g id="Layer_1-2" data-name="Layer 1"><path class="cls-1" d="M12.45,9.14a3.89,3.89,0,0,1-.65-2.41V3.25A3.89,3.89,0,0,1,12.44.82,2.63,2.63,0,0,1,14.64,0a2.62,2.62,0,0,1,2.11.73,3.11,3.11,0,0,1,.62,2.08v.81H15.45v-.9a6,6,0,0,0,0-.69.77.77,0,0,0-.22-.44.71.71,0,0,0-.53-.17c-.36,0-.6.11-.7.34a2.72,2.72,0,0,0-.16,1V7.2a2.21,2.21,0,0,0,.18,1,.71.71,0,0,0,.68.34.61.61,0,0,0,.64-.35,2.58,2.58,0,0,0,.15-1v-1h1.92v.81a3.42,3.42,0,0,1-.61,2.15,2.58,2.58,0,0,1-2.12.76A2.62,2.62,0,0,1,12.45,9.14Z" transform="translate(-0.01)"/><path class="cls-1" d="M19.18.12H21.7A3.93,3.93,0,0,1,24.06.7a2.28,2.28,0,0,1,.8,2,3.68,3.68,0,0,1-.27,1.53,1.75,1.75,0,0,1-.93.88L25,9.84H23l-1.1-4.4h-.72v4.4h-2Zm2.56,4.14a1.18,1.18,0,0,0,1-.34A1.68,1.68,0,0,0,23,2.84a1.72,1.72,0,0,0-.26-1,1,1,0,0,0-.91-.34h-.68V4.26Z" transform="translate(-0.01)"/><path class="cls-1" d="M26.78.12H31V1.49H28.74V4.07H30.5V5.45H28.74V8.5H31V9.84H26.78Z" transform="translate(-0.01)"/><path class="cls-1" d="M34.05.12h2.19l1.88,9.72H36.29L35.93,7.7H34.4L34,9.84H32.16Zm1.69,6.36-.59-3.91-.57,3.91Z" transform="translate(-0.01)"/><path class="cls-1" d="M40.12,1.58h-1.5V.12h5V1.58H42.11V9.84h-2Z" transform="translate(-0.01)"/><path class="cls-1" d="M45.09.12h2V9.84h-2Z" transform="translate(-0.01)"/><path class="cls-1" d="M48.66.12h1.72l1.15,6.72L52.61.12H54.4L52.55,9.84h-2Z" transform="translate(-0.01)"/><path class="cls-1" d="M56,.12h4.24V1.49H58V4.07H59.7V5.45H58V8.5h2.29V9.84H56Z" transform="translate(-0.01)"/><path class="cls-1" d="M12.45,21.19a3.3,3.3,0,0,1-.69-2l1.17-.31a3.45,3.45,0,0,0,.35,1.47,1,1,0,0,0,1,.56,1,1,0,0,0,.78-.29,1.19,1.19,0,0,0,.26-.82,1.73,1.73,0,0,0-.25-1,3.88,3.88,0,0,0-.78-.85l-1.59-1.4a2.71,2.71,0,0,1-.69-.91,2.81,2.81,0,0,1-.22-1.19,2.12,2.12,0,0,1,.6-1.61A2.24,2.24,0,0,1,14,12.28a2.29,2.29,0,0,1,1.7.59,3.06,3.06,0,0,1,.69,1.85L15.26,15a2.91,2.91,0,0,0-.32-1.28A1,1,0,0,0,14,13.3a1,1,0,0,0-.77.26,1,1,0,0,0-.27.77,1.63,1.63,0,0,0,.14.71,1.76,1.76,0,0,0,.48.58l1.6,1.4a5.18,5.18,0,0,1,1,1.19,3,3,0,0,1,.37,1.47,2.16,2.16,0,0,1-.63,1.64,2.25,2.25,0,0,1-1.64.61A2.24,2.24,0,0,1,12.45,21.19Z" transform="translate(-0.01)"/><path class="cls-1" d="M19.19,13.34h-1.6v-1h4.47v1H20.51v8.49H19.19Z" transform="translate(-0.01)"/><path class="cls-1" d="M24,21.14a3.64,3.64,0,0,1-.61-2.28V15.27A3.53,3.53,0,0,1,24,13a2.4,2.4,0,0,1,2-.76A2.36,2.36,0,0,1,28,13a3.57,3.57,0,0,1,.6,2.23v3.6A3.65,3.65,0,0,1,28,21.14a2.31,2.31,0,0,1-2,.79A2.33,2.33,0,0,1,24,21.14Zm3-.68a2.65,2.65,0,0,0,.26-1.31V15A2.5,2.5,0,0,0,27,13.72a1.06,1.06,0,0,0-1-.41,1.09,1.09,0,0,0-1,.41A2.51,2.51,0,0,0,24.72,15v4.15A2.67,2.67,0,0,0,25,20.46a1.07,1.07,0,0,0,1,.43A1,1,0,0,0,27,20.46Z" transform="translate(-0.01)"/><path class="cls-1" d="M30.44,12.36h1.91a3.16,3.16,0,0,1,2.11.59,2.45,2.45,0,0,1,.67,1.92c0,1.22-.39,2-1.17,2.21l1.34,4.75H34l-1.24-4.44h-1v4.44H30.44Zm1.83,4.08a1.78,1.78,0,0,0,1.22-.34,1.67,1.67,0,0,0,.36-1.23,2.74,2.74,0,0,0-.12-.91.9.9,0,0,0-.46-.5,2.29,2.29,0,0,0-.92-.15h-.59v3.13Z" transform="translate(-0.01)"/><path class="cls-1" d="M38.54,18.48l-2-6.12h1.22l1.45,4.57,1.43-4.57h1.24l-2,6.12v3.35H38.54Z" transform="translate(-0.01)"/><path class="cls-1" d="M44.34,13.34h-1.6v-1h4.47v1H45.66v8.49H44.34Z" transform="translate(-0.01)"/><path class="cls-1" d="M48.71,12.36h3.67v1H50v3.13h1.9v.94H50v3.47H52.4v.95H48.71Z" transform="translate(-0.01)"/><path class="cls-1" d="M54.05,12.36h1.32v8.52h2.42v.95H54.05Z" transform="translate(-0.01)"/><path class="cls-1" d="M59.27,12.36h1.32v8.52H63v.95H59.27Z" transform="translate(-0.01)"/><path class="cls-1" d="M64.56,12.36h1.3v9.47h-1.3Z" transform="translate(-0.01)"/><path class="cls-1" d="M68,12.36h.9l2.68,6.29V12.36h1.1v9.47h-.84L69.1,15.36v6.47H68Z" transform="translate(-0.01)"/><path class="cls-1" d="M75.13,21.13a4.2,4.2,0,0,1-.58-2.41V15.55a6,6,0,0,1,.23-1.8,2,2,0,0,1,.78-1.09,2.7,2.7,0,0,1,1.53-.38,2.41,2.41,0,0,1,1.89.66,3.21,3.21,0,0,1,.58,2.1v.35H78.32v-.3a5.39,5.39,0,0,0-.08-1,.91.91,0,0,0-.35-.56,1.36,1.36,0,0,0-.78-.18,1.12,1.12,0,0,0-.81.25,1.18,1.18,0,0,0-.35.67,6.54,6.54,0,0,0-.08,1.12v3.51a3.35,3.35,0,0,0,.27,1.56,1.05,1.05,0,0,0,1,.47,1,1,0,0,0,1-.51,3.76,3.76,0,0,0,.27-1.65v-.66h-1.2v-.93h2.4v4.69H78.8l-.13-1.09A1.67,1.67,0,0,1,77,21.94,2.11,2.11,0,0,1,75.13,21.13Z" transform="translate(-0.01)"/><path class="cls-2" d="M8.56.82A12.18,12.18,0,0,1,8,2.31c-.1.22-.21.45-.32.67l-.21.38-.09.16s0,0,0,0h.26c-.2,0-.44-.43-.58-.61a9.64,9.64,0,0,1-.58-.84,2.54,2.54,0,0,0-.56-.74.72.72,0,0,0-.94,0,3,3,0,0,0-.5.85L4,3.2A4,4,0,0,1,3,4.68a.52.52,0,0,0-.18.68.5.5,0,0,0,.69.18A4.5,4.5,0,0,0,4.7,4l.5-1,.28-.56A1.44,1.44,0,0,1,5.72,2l-.22.13-.16,0,0,.06a.59.59,0,0,0,.1.17c.08.13.16.26.25.39s.36.53.56.79c.36.46.81,1.15,1.49.91a1.15,1.15,0,0,0,.58-.61c.16-.29.3-.57.44-.86a14.22,14.22,0,0,0,.71-1.88c.19-.61-.77-.88-1-.26Z" transform="translate(-0.01)"/><path class="cls-2" d="M87.82.82c-.16.5-.34,1-.55,1.49-.1.22-.21.45-.33.67s-.13.25-.2.38l-.09.16s0,0,0,0h.27c-.2,0-.44-.43-.58-.61a9.75,9.75,0,0,1-.59-.84,2.51,2.51,0,0,0-.55-.74.73.73,0,0,0-1,0,3,3,0,0,0-.49.85l-.52,1a4.11,4.11,0,0,1-1,1.48.5.5,0,0,0-.18.68.49.49,0,0,0,.68.18A4.39,4.39,0,0,0,84,4l.5-1,.29-.56A1.44,1.44,0,0,1,85,2l-.22.13-.17,0,0,.06a1,1,0,0,0,.1.17l.25.39c.18.27.37.53.57.79.35.46.81,1.15,1.49.91a1.19,1.19,0,0,0,.58-.61c.15-.29.3-.57.43-.86a15.83,15.83,0,0,0,.72-1.88C89,.47,88,.2,87.82.82Z" transform="translate(-0.01)"/><path class="cls-2" d="M71.75,8.47a3.9,3.9,0,0,0,3.46.47,4,4,0,0,0,2.38-2.33.5.5,0,1,0-1-.26,2.91,2.91,0,0,1-4.38,1.26c-.53-.37-1,.5-.5.86Z" transform="translate(-0.01)"/><path class="cls-2" d="M4.09,8.84A3.93,3.93,0,0,0,1,10.15a4,4,0,0,0-.9,3.33.51.51,0,0,0,.62.35A.52.52,0,0,0,1,13.21a2.9,2.9,0,0,1,.68-2.4,3,3,0,0,1,2.37-1,.5.5,0,0,0,.5-.5.51.51,0,0,0-.5-.5Z" transform="translate(-0.01)"/><path class="cls-2" d="M75.21,2.85a.5.5,0,0,0,0-1,.5.5,0,0,0,0,1Z" transform="translate(-0.01)"/><path class="cls-2" d="M8,9.7a.5.5,0,0,0,0-1,.5.5,0,0,0,0,1Z" transform="translate(-0.01)"/><path class="cls-2" d="M85,19.06l0,2.41a.49.49,0,0,0,.3.46.51.51,0,0,0,.55-.11L87.39,20a.49.49,0,0,0-.7-.7l-1.64,1.87.86.35,0-2.41a.5.5,0,0,0-.5-.5.5.5,0,0,0-.5.5Z" transform="translate(-0.01)"/><path class="cls-2" d="M5.28,18.47a1.26,1.26,0,0,0,.54-1.61,1.32,1.32,0,0,0-1.51-.7,2.06,2.06,0,0,0-1.45.94,2.5,2.5,0,0,0,.08,1.84,4.33,4.33,0,0,0,.93,1.59A1.8,1.8,0,0,0,5.61,21a2.78,2.78,0,0,0,2.08-2.32,5.3,5.3,0,0,0-.28-2.16,3.93,3.93,0,0,0-1-1.77c-.47-.45-1.17.26-.71.71a4,4,0,0,1,.91,2.15,2,2,0,0,1-.49,2,1.74,1.74,0,0,1-.81.44.83.83,0,0,1-.91-.37,3.65,3.65,0,0,1-.55-1,1.8,1.8,0,0,1-.15-1.07c.1-.26.68-.45.93-.44a.26.26,0,0,1,.11.49.5.5,0,0,0,.5.86Z" transform="translate(-0.01)"/><path class="cls-2" d="M85.65,9.41c-.61.46-1.25.88-1.89,1.32a10.52,10.52,0,0,0-.86.63.71.71,0,0,0-.2.85,3.48,3.48,0,0,0,.58.76l1.2,1.44a.86.86,0,0,0,.74.41,2.17,2.17,0,0,0,.87-.37,10.06,10.06,0,0,0,1.3-.95,3.21,3.21,0,0,0,.55-.49A.81.81,0,0,0,88,12a9.18,9.18,0,0,0-.76-1.28,11,11,0,0,0-1-1.27c-.44-.48-1.14.23-.71.7A10.49,10.49,0,0,1,86.82,12c.09.15.18.3.26.45s0,.19.09,0,0-.08,0,0l-.15.12c-.32.28-.65.55-1,.8a5.36,5.36,0,0,1-.57.34s-.23.09-.25.13.21.16.16,0a1.07,1.07,0,0,0-.14-.16l-1-1.17L83.73,12s-.07-.1-.11-.14.1.27-.05.29l.13-.1c.24-.18.49-.35.74-.52.58-.4,1.16-.78,1.72-1.21a.51.51,0,0,0,.18-.68A.51.51,0,0,0,85.65,9.41Z" transform="translate(-0.01)"/><path class="cls-2" d="M63.53,2.85c0,.14,0,.28.07.42l0,.26,0,.14,0,.1s0,0,0,0c.06.43.11.87.17,1.3s.08.64.14,1a.74.74,0,0,0,.56.61,2.54,2.54,0,0,0,1-.15l1.74-.39a1.1,1.1,0,0,0,.8-.41,1.66,1.66,0,0,0,.12-.91A9.92,9.92,0,0,0,67.93,3a2.29,2.29,0,0,0-.25-.79.89.89,0,0,0-.82-.35A14.15,14.15,0,0,0,65.41,2a10,10,0,0,0-1.53.28.5.5,0,0,0,.26,1,9.89,9.89,0,0,1,2.15-.32l.5,0H67s-.16-.07-.15-.13,0,.14,0,.17a10.47,10.47,0,0,1,.29,1.46,6.12,6.12,0,0,1,0,.74.75.75,0,0,0,0,.15s.11-.19.15-.17a.3.3,0,0,0-.12,0L67,5.15l-1.49.34c-.24,0-.49.09-.72.16s-.07,0,.07.12.12.12.1,0a1.62,1.62,0,0,1,0-.19c0-.13,0-.26,0-.38l0-.23,0-.12c0,.1,0,0,0-.06-.1-.74-.17-1.48-.31-2.21a.49.49,0,0,0-.61-.35A.51.51,0,0,0,63.53,2.85Z" transform="translate(-0.01)"/></g></g></svg>